<svg data-v-423bf9ae="" xmlns="http://www.w3.org/2000/svg" viewBox="0 0 354 90" class="iconLeftSlogan"><!----><!----><!----><g data-v-423bf9ae="" id="39f0d621-7cae-4699-889b-ae8002a3186d" fill="white" transform="matrix(5.494505456117445,0,0,5.494505456117445,114.31916137294039,-19.780218641188775)"><path d="M0.74 14.35L3.89 14.35L3.89 13.85L2.77 13.85L2.77 9.59L8.16 9.59L8.16 13.85L7.04 13.85L7.04 14.35L10.19 14.35L10.19 13.85L9.07 13.85L9.07 5.08L10.19 5.08L10.19 4.58L7.04 4.58L7.04 5.08L8.16 5.08L8.16 9.04L2.77 9.04L2.77 5.08L3.89 5.08L3.89 4.58L0.74 4.58L0.74 5.08L1.86 5.08L1.86 13.85L0.74 13.85ZM13.86 14.52C15.19 14.52 15.78 13.86 16.04 13.22L16.10 13.22L16.10 13.55C16.10 14.15 16.42 14.49 17.08 14.49C17.44 14.49 17.85 14.39 18.05 14.27L18.05 13.89L16.94 13.89L16.94 9.23C16.94 7.81 16.02 7.01 14.52 7.01C12.96 7.01 11.97 7.71 11.97 8.44C11.97 8.86 12.22 9.10 12.60 9.10C12.99 9.10 13.24 8.86 13.24 8.46C13.24 8.13 13.05 7.95 12.84 7.85L12.84 7.83C13.12 7.64 13.61 7.52 14.25 7.52C15.44 7.52 16.07 8.16 16.07 9.35L16.07 10.49L14.84 10.49C12.52 10.49 11.65 11.20 11.65 12.59C11.65 13.76 12.47 14.52 13.86 14.52ZM14.18 13.93C13.16 13.93 12.59 13.45 12.59 12.70L12.59 12.39C12.59 11.45 13.15 10.93 14.95 10.93L16.07 10.93L16.07 12.35C16.07 13.33 15.25 13.93 14.18 13.93ZM19.15 14.35L22.51 14.35L22.51 13.85L21.13 13.85L21.13 9.25C21.13 8.39 22.06 7.48 22.89 7.48C23.00 7.48 23.18 7.49 23.24 7.50L23.24 7.53C23.07 7.56 22.92 7.77 22.92 8.06C22.92 8.41 23.18 8.67 23.59 8.67C23.97 8.67 24.23 8.40 24.23 7.95C24.23 7.35 23.79 7.01 23.07 7.01C22.01 7.01 21.43 7.71 21.17 8.36L21.10 8.36L21.10 7.04L19.15 7.36L19.15 7.74L20.26 7.90L20.26 13.85L19.15 13.85ZM26.61 5.29C27.02 5.29 27.24 5.03 27.24 4.69L27.24 4.63C27.24 4.30 27.02 4.03 26.61 4.03C26.21 4.03 25.98 4.30 25.98 4.63L25.98 4.69C25.98 5.03 26.21 5.29 26.61 5.29ZM25.07 14.35L28.15 14.35L28.15 13.85L27.05 13.85L27.05 7.04L25.07 7.36L25.07 7.74L26.18 7.90L26.18 13.85L25.07 13.85ZM32.07 14.52C33.66 14.52 34.61 13.68 34.61 12.47C34.61 11.26 33.85 10.67 32.48 10.36L31.74 10.21C30.86 10.01 30.32 9.60 30.32 8.81C30.32 7.97 30.97 7.56 32.02 7.56C33.12 7.56 33.73 7.97 33.73 8.79L33.73 9.30L34.40 9.30L34.40 7.18L33.73 7.18L33.73 7.83L33.68 7.83C33.47 7.38 32.87 7.01 31.91 7.01C30.48 7.01 29.51 7.73 29.51 8.95C29.51 10.18 30.27 10.78 31.60 11.06L32.37 11.23C33.28 11.42 33.77 11.84 33.77 12.63C33.77 13.54 33.10 13.97 31.93 13.97C30.76 13.97 30.13 13.47 30.13 12.60L30.13 12.24L29.46 12.24L29.46 14.35L30.13 14.35L30.13 13.61L30.17 13.61C30.42 14.08 31.09 14.52 32.07 14.52ZM35.91 14.35L38.99 14.35L38.99 13.85L37.88 13.85L37.88 9.21C37.88 8.15 38.82 7.62 39.77 7.62C41.02 7.62 41.64 8.33 41.64 9.80L41.64 13.85L40.53 13.85L40.53 14.35L43.61 14.35L43.61 13.85L42.50 13.85L42.50 9.72C42.50 7.92 41.78 7.01 40.07 7.01C38.85 7.01 38.18 7.66 37.94 8.29L37.88 8.29L37.88 3.60L35.91 3.92L35.91 4.30L37.02 4.45L37.02 13.85L35.91 13.85Z"></path></g><!----><g data-v-423bf9ae="" id="4c1261cb-1d54-49b4-8ea5-a2840285e176" transform="matrix(1.1180124223602483,0,0,1.1180124223602483,-5.900621118012417,-10.150621118012417)" stroke="none" fill="white"><path d="M94 59.75v-46c0-2.206-1.794-4-4-4H10c-2.206 0-4 1.794-4 4v46h88zM78.939 17.689a1.5 1.5 0 0 1 2.121 0l5 5a1.5 1.5 0 1 1-2.121 2.122l-5-5a1.502 1.502 0 0 1 0-2.122zm-10 0a1.5 1.5 0 0 1 2.121 0l15 15a1.5 1.5 0 1 1-2.121 2.122l-15-15a1.502 1.502 0 0 1 0-2.122zM6 62.75v6c0 2.206 1.794 4 4 4h28.5v6c0 1.071-.541 2.857-1.135 3.748l-2.227 3.34c-.68 1.02-.797 2.116-.319 3.009.477.892 1.454 1.403 2.681 1.403h25c1.227 0 2.203-.512 2.681-1.403.478-.893.361-1.989-.319-3.009l-2.227-3.34c-.594-.891-1.135-2.677-1.135-3.748v-6H90c2.206 0 4-1.794 4-4v-6H6zm44 6a2.5 2.5 0 1 1 0-5 2.5 2.5 0 0 1 0 5z"></path></g><!----><g data-v-423bf9ae="" id="a359b0c6-062d-4441-8f81-c4a14973681a" fill="white" transform="matrix(0.8669069267191237,0,0,0.8669069267191237,117.16275401000479,56.176940282684704)"><path d="M10.54 5.74L10.54 5.74L10.54 5.74Q10.58 5.98 10.61 6.07L10.61 6.07L10.61 6.07Q10.63 6.16 10.63 6.31L10.63 6.31L10.63 6.31Q10.63 6.78 10.42 7.18L10.42 7.18L10.42 7.18Q10.22 7.57 9.87 7.74L9.87 7.74L9.87 7.74Q9.59 7.36 9.18 7.09L9.18 7.09L9.18 7.09Q8.78 6.82 8.29 6.64L8.29 6.64L8.29 6.64Q7.81 6.47 7.29 6.38L7.29 6.38L7.29 6.38Q6.78 6.30 6.29 6.30L6.29 6.30L6.29 6.30Q5.80 6.30 5.37 6.38L5.37 6.38L5.37 6.38Q4.94 6.45 4.61 6.59L4.61 6.59L4.61 6.59Q4.28 6.72 4.09 6.92L4.09 6.92L4.09 6.92Q3.91 7.11 3.91 7.36L3.91 7.36L3.91 7.36Q3.95 7.67 4.28 7.99L4.28 7.99L4.28 7.99Q4.62 8.30 5.11 8.60L5.11 8.60L5.11 8.60Q5.60 8.90 6.20 9.20L6.20 9.20L6.20 9.20Q6.79 9.49 7.36 9.76L7.36 9.76L7.36 9.76Q8.08 10.09 8.60 10.38L8.60 10.38L8.60 10.38Q9.11 10.67 9.45 11.01L9.45 11.01L9.45 11.01Q9.79 11.35 9.95 11.79L9.95 11.79L9.95 11.79Q10.12 12.22 10.12 12.84L10.12 12.84L10.12 12.84Q10.12 13.55 9.88 14.18L9.88 14.18L9.88 14.18Q9.65 14.80 9.19 15.26L9.19 15.26L9.19 15.26Q8.74 15.72 8.09 15.98L8.09 15.98L8.09 15.98Q7.45 16.24 6.65 16.24L6.65 16.24L6.65 16.24Q5.87 16.24 4.96 16.00L4.96 16.00L4.96 16.00Q4.05 15.76 3.25 15.35L3.25 15.35L3.25 15.35Q2.46 14.94 1.94 14.40L1.94 14.40L1.94 14.40Q1.41 13.86 1.41 13.26L1.41 13.26L1.41 13.26Q1.41 12.98 1.57 12.54L1.57 12.54L1.57 12.54Q1.74 12.11 2.16 11.63L2.16 11.63L2.16 11.63Q2.20 12.05 2.61 12.63L2.61 12.63L2.61 12.63Q3.02 13.20 3.85 13.69L3.85 13.69L3.85 13.69Q4.62 14.14 5.44 14.34L5.44 14.34L5.44 14.34Q6.26 14.55 6.97 14.55L6.97 14.55L6.97 14.55Q7.76 14.55 8.25 14.35L8.25 14.35L8.25 14.35Q8.74 14.15 9.02 13.88L9.02 13.88L9.02 13.88Q9.30 13.61 9.41 13.33L9.41 13.33L9.41 13.33Q9.52 13.05 9.53 12.88L9.53 12.88L9.53 12.88Q9.52 12.60 9.28 12.34L9.28 12.34L9.28 12.34Q9.03 12.08 8.62 11.84L8.62 11.84L8.62 11.84Q8.20 11.59 7.66 11.34L7.66 11.34L7.66 11.34Q7.11 11.09 6.52 10.84L6.52 10.84L6.52 10.84Q5.64 10.44 5.00 10.10L5.00 10.10L5.00 10.10Q4.37 9.76 3.96 9.40L3.96 9.40L3.96 9.40Q3.54 9.04 3.35 8.65L3.35 8.65L3.35 8.65Q3.16 8.26 3.16 7.76L3.16 7.76L3.16 7.76Q3.16 6.97 3.64 6.27L3.64 6.27L3.64 6.27Q4.12 5.57 5.01 5.21L5.01 5.21L5.01 5.21Q5.46 5.01 5.97 4.93L5.97 4.93L5.97 4.93Q6.48 4.84 6.97 4.84L6.97 4.84L6.97 4.84Q7.90 4.84 8.78 5.10L8.78 5.10L8.78 5.10Q9.66 5.35 10.54 5.74ZM19.77 15.67L19.77 15.67L19.77 15.67Q18.97 15.58 18.49 14.97L18.49 14.97L18.49 14.97Q18.02 14.35 18.02 13.40L18.02 13.40L18.02 13.40Q18.02 12.84 18.19 12.24L18.19 12.24L18.19 12.24Q18.35 11.63 18.66 11.07L18.66 11.07L18.66 11.07Q18.97 10.50 19.39 10.00L19.39 10.00L19.39 10.00Q19.81 9.49 20.30 9.13L20.30 9.13L20.30 9.13Q21.07 8.55 21.74 8.55L21.74 8.55L21.74 8.55Q22.19 8.79 22.62 9.55L22.62 9.55L22.62 9.55Q22.69 9.55 22.75 9.54L22.75 9.54L22.75 9.54Q22.81 9.53 22.88 9.53L22.88 9.53L22.88 9.53Q23.62 9.53 23.62 10.85L23.62 10.85L23.62 10.85Q23.62 11.73 23.33 12.52L23.33 12.52L23.33 12.52Q23.04 13.31 22.53 13.96L22.53 13.96L22.53 13.96Q22.02 14.60 21.31 15.04L21.31 15.04L21.31 15.04Q20.61 15.48 19.77 15.67ZM20.48 11.26L20.48 11.26L20.48 11.26Q20.24 11.58 20.03 11.96L20.03 11.96L20.03 11.96Q19.82 12.33 19.67 12.72L19.67 12.72L19.67 12.72Q19.52 13.10 19.43 13.46L19.43 13.46L19.43 13.46Q19.35 13.82 19.35 14.10L19.35 14.10L19.35 14.10Q19.35 14.43 19.46 14.74L19.46 14.74L19.46 14.74Q19.57 15.05 19.71 15.09L19.71 15.09L19.71 15.09Q20.34 14.95 20.87 14.57L20.87 14.57L20.87 14.57Q21.39 14.18 21.78 13.61L21.78 13.61L21.78 13.61Q22.16 13.03 22.38 12.31L22.38 12.31L22.38 12.31Q22.60 11.58 22.60 10.75L22.60 10.75L22.60 10.75Q22.60 10.39 22.55 10.18L22.55 10.18L22.55 10.18Q22.51 9.97 22.41 9.81L22.41 9.81L22.41 9.81Q21.80 10.00 21.31 10.40L21.31 10.40L21.31 10.40Q20.83 10.81 20.48 11.26ZM31.85 19.22L31.85 19.22L31.85 19.22Q31.50 19.08 31.43 18.69L31.43 18.69L31.43 18.69Q31.37 18.31 30.95 18.07L30.95 18.07L30.95 18.07Q31.07 17.36 31.21 16.63L31.21 16.63L31.21 16.63Q31.35 15.90 31.56 14.97L31.56 14.97L31.56 14.97Q31.78 14.04 32.11 12.80L32.11 12.80L32.11 12.80Q32.44 11.56 32.94 9.80L32.94 9.80L32.94 9.80Q32.48 9.80 32.21 9.81L32.21 9.81L32.21 9.81Q31.95 9.83 31.70 9.87L31.70 9.87L31.70 9.87Q31.64 9.81 31.60 9.72L31.60 9.72L31.60 9.72Q31.57 9.62 31.57 9.53L31.57 9.53L31.57 9.53Q31.71 9.48 32.14 9.39L32.14 9.39L32.14 9.39Q32.58 9.30 33.10 9.23L33.10 9.23L33.10 9.23Q33.43 8.16 33.87 7.32L33.87 7.32L33.87 7.32Q34.30 6.47 34.80 5.87L34.80 5.87L34.80 5.87Q35.31 5.26 35.87 4.94L35.87 4.94L35.87 4.94Q36.43 4.62 37.00 4.62L37.00 4.62L37.00 4.62Q37.17 4.62 37.32 4.64L37.32 4.64L37.32 4.64Q37.48 4.66 37.56 4.66L37.56 4.66L37.56 4.66Q37.69 4.56 37.90 4.49L37.90 4.49L37.90 4.49Q38.11 4.41 38.26 4.41L38.26 4.41L38.26 4.41Q38.43 4.41 38.70 4.59L38.70 4.59L38.70 4.59Q38.58 4.79 38.46 5.12L38.46 5.12L38.46 5.12Q38.33 5.46 38.25 5.78L38.25 5.78L38.25 5.78Q37.90 6.82 37.51 7.13L37.51 7.13L37.51 7.13Q37.35 7.13 37.34 6.72L37.34 6.72L37.34 6.72Q37.32 6.43 37.25 6.15L37.25 6.15L37.25 6.15Q37.20 6.02 37.18 5.92L37.18 5.92L37.18 5.92Q37.16 5.82 37.16 5.67L37.16 5.67L37.16 5.67Q37.16 5.59 37.17 5.47L37.17 5.47L37.17 5.47Q37.18 5.35 37.23 5.07L37.23 5.07L37.23 5.07Q36.99 5.07 36.70 5.36L36.70 5.36L36.70 5.36Q36.41 5.66 36.10 6.20L36.10 6.20L36.10 6.20Q35.78 6.73 35.46 7.48L35.46 7.48L35.46 7.48Q35.14 8.22 34.85 9.11L34.85 9.11L36.02 9.07L36.02 9.07Q36.09 9.14 36.14 9.39L36.14 9.39L36.14 9.39Q36.19 9.63 36.20 9.90L36.20 9.90L34.66 9.81L34.66 9.81Q34.13 11.40 33.67 12.84L33.67 12.84L33.67 12.84Q33.21 14.28 32.84 15.50L32.84 15.50L32.84 15.50Q32.48 16.72 32.22 17.68L32.22 17.68L32.22 17.68Q31.96 18.63 31.85 19.22ZM44.49 9.81L43.69 9.81L43.69 9.81Q43.62 9.73 43.57 9.46L43.57 9.46L43.57 9.46Q43.51 9.18 43.51 8.99L43.51 8.99L43.51 8.99Q43.88 9.02 44.21 9.04L44.21 9.04L44.21 9.04Q44.55 9.06 44.83 9.07L44.83 9.07L44.83 9.07Q45.04 8.65 45.28 8.24L45.28 8.24L45.28 8.24Q45.53 7.83 45.76 7.48L45.76 7.48L45.76 7.48Q45.99 7.14 46.19 6.90L46.19 6.90L46.19 6.90Q46.40 6.66 46.51 6.59L46.51 6.59L46.51 6.59Q46.65 6.59 46.86 6.64L46.86 6.64L46.86 6.64Q47.08 6.69 47.31 6.77L47.31 6.77L47.31 6.77Q47.53 6.85 47.71 6.93L47.71 6.93L47.71 6.93Q47.89 7.01 47.96 7.10L47.96 7.10L47.96 7.10Q47.54 7.63 47.24 8.09L47.24 8.09L47.24 8.09Q46.94 8.54 46.59 9.13L46.59 9.13L46.59 9.13Q46.87 9.13 47.16 9.11L47.16 9.11L47.16 9.11Q47.45 9.10 47.74 9.07L47.74 9.07L47.74 9.07Q47.81 9.14 47.85 9.25L47.85 9.25L47.85 9.25Q47.89 9.35 47.89 9.46L47.89 9.46L47.89 9.46Q47.21 9.72 46.23 9.74L46.23 9.74L46.23 9.74Q45.88 10.42 45.60 11.08L45.60 11.08L45.60 11.08Q45.33 11.75 45.14 12.36L45.14 12.36L45.14 12.36Q44.95 12.98 44.85 13.52L44.85 13.52L44.85 13.52Q44.74 14.07 44.74 14.50L44.74 14.50L44.74 14.50Q44.74 15.12 45.21 15.19L45.21 15.19L45.21 15.19Q45.63 15.13 46.00 14.98L46.00 14.98L46.00 14.98Q46.38 14.83 46.68 14.59L46.68 14.59L46.68 14.59Q46.76 14.71 46.77 14.80L46.77 14.80L46.77 14.80Q46.69 14.92 46.49 15.09L46.49 15.09L46.49 15.09Q46.28 15.26 46.05 15.42L46.05 15.42L46.05 15.42Q45.81 15.58 45.58 15.69L45.58 15.69L45.58 15.69Q45.36 15.81 45.25 15.82L45.25 15.82L45.25 15.82Q44.90 15.81 44.55 15.67L44.55 15.67L44.55 15.67Q44.20 15.53 43.91 15.32L43.91 15.32L43.91 15.32Q43.62 15.11 43.44 14.85L43.44 14.85L43.44 14.85Q43.26 14.59 43.26 14.34L43.26 14.34L43.26 14.34Q43.26 14 43.35 13.49L43.35 13.49L43.35 13.49Q43.44 12.98 43.61 12.38L43.61 12.38L43.61 12.38Q43.78 11.77 44.00 11.12L44.00 11.12L44.00 11.12Q44.23 10.46 44.49 9.81L44.49 9.81ZM54.92 14.60L54.92 14.60L54.92 14.60Q54.92 14.32 54.98 13.82L54.98 13.82L54.98 13.82Q55.05 13.31 55.15 12.73L55.15 12.73L55.15 12.73Q55.26 12.14 55.39 11.52L55.39 11.52L55.39 11.52Q55.52 10.91 55.66 10.42L55.66 10.42L55.66 10.42Q55.85 9.76 56.23 9.40L56.23 9.40L56.23 9.40Q56.62 9.04 57.19 9.04L57.19 9.04L57.19 9.04Q57.50 9.04 57.80 9.14L57.80 9.14L57.80 9.14Q58.10 9.24 58.16 9.39L58.16 9.39L58.16 9.39Q57.75 9.73 57.50 10.23L57.50 10.23L57.50 10.23Q57.26 10.72 57.11 11.29L57.11 11.29L57.11 11.29Q56.97 11.86 56.89 12.45L56.89 12.45L56.89 12.45Q56.81 13.05 56.73 13.57L56.73 13.57L56.73 13.57Q57.19 12.95 57.60 12.45L57.60 12.45L57.60 12.45Q58.02 11.96 58.34 11.66L58.34 11.66L58.34 11.66Q58.77 11.26 58.93 10.98L58.93 10.98L58.93 10.98Q59.08 10.71 59.19 10.39L59.19 10.39L59.19 10.39Q59.28 10.14 59.39 9.80L59.39 9.80L59.39 9.80Q59.51 9.46 59.79 9.18L59.79 9.18L59.79 9.18Q59.85 9.17 60.03 9.17L60.03 9.17L60.03 9.17Q60.17 9.17 60.33 9.18L60.33 9.18L60.33 9.18Q60.49 9.20 60.63 9.24L60.63 9.24L60.63 9.24Q60.77 9.28 60.87 9.34L60.87 9.34L60.87 9.34Q60.97 9.39 60.98 9.48L60.98 9.48L60.98 9.48Q60.76 9.77 60.56 10.39L60.56 10.39L60.56 10.39Q60.37 11.02 60.21 11.76L60.21 11.76L60.21 11.76Q60.06 12.50 59.93 13.24L59.93 13.24L59.93 13.24Q59.81 13.97 59.71 14.48L59.71 14.48L59.71 14.48Q59.77 14.45 59.96 14.25L59.96 14.25L59.96 14.25Q60.16 14.06 60.40 13.76L60.40 13.76L60.40 13.76Q60.65 13.47 60.92 13.12L60.92 13.12L60.92 13.12Q61.19 12.77 61.40 12.43L61.40 12.43L61.40 12.43Q61.67 12.03 61.84 11.67L61.84 11.67L61.84 11.67Q62.02 11.31 62.15 10.91L62.15 10.91L62.15 10.91Q62.29 10.50 62.40 10.00L62.40 10.00L62.40 10.00Q62.51 9.51 62.64 8.82L62.64 8.82L62.64 8.82Q62.72 8.71 63.01 8.63L63.01 8.63L63.01 8.63Q63.29 8.55 63.53 8.55L63.53 8.55L63.53 8.55Q63.74 8.55 63.84 8.62L63.84 8.62L63.84 8.62Q63.77 9.41 63.58 10.02L63.58 10.02L63.58 10.02Q63.39 10.64 63.07 11.22L63.07 11.22L63.07 11.22Q62.75 11.80 62.27 12.38L62.27 12.38L62.27 12.38Q61.80 12.96 61.15 13.65L61.15 13.65L61.15 13.65Q60.89 13.93 60.57 14.27L60.57 14.27L60.57 14.27Q60.26 14.60 59.95 14.89L59.95 14.89L59.95 14.89Q59.65 15.18 59.39 15.37L59.39 15.37L59.39 15.37Q59.14 15.57 59.00 15.57L59.00 15.57L59.00 15.57Q58.67 15.57 58.46 15.32L58.46 15.32L58.46 15.32Q58.25 15.06 58.25 14.67L58.25 14.67L58.25 14.67Q58.25 14.27 58.29 13.96L58.29 13.96L58.29 13.96Q58.32 13.66 58.41 13.33L58.41 13.33L58.41 13.33Q58.49 13.02 58.54 12.81L58.54 12.81L58.54 12.81Q58.59 12.60 58.62 12.45L58.62 12.45L58.62 12.45Q58.66 12.29 58.67 12.18L58.67 12.18L58.67 12.18Q58.69 12.07 58.70 11.96L58.70 11.96L58.70 11.96Q58.59 12.01 58.41 12.19L58.41 12.19L58.41 12.19Q58.23 12.36 58.03 12.59L58.03 12.59L58.03 12.59Q57.83 12.82 57.64 13.06L57.64 13.06L57.64 13.06Q57.44 13.30 57.32 13.47L57.32 13.47L57.32 13.47Q57.05 13.83 56.85 14.11L56.85 14.11L56.85 14.11Q56.66 14.39 56.48 14.64L56.48 14.64L56.48 14.64Q56.31 14.90 56.14 15.15L56.14 15.15L56.14 15.15Q55.97 15.41 55.75 15.71L55.75 15.71L55.75 15.71Q55.30 15.57 55.11 15.29L55.11 15.29L55.11 15.29Q54.92 15.01 54.92 14.60ZM75.52 9.52L75.52 9.52L75.52 9.52Q75.66 9.52 75.84 9.57L75.84 9.57L75.84 9.57Q76.03 9.62 76.19 9.70L76.19 9.70L76.19 9.70Q76.34 9.77 76.45 9.86L76.45 9.86L76.45 9.86Q76.55 9.94 76.55 10.01L76.55 10.01L76.55 10.01Q76.27 10.60 76.03 11.19L76.03 11.19L76.03 11.19Q75.80 11.79 75.63 12.33L75.63 12.33L75.63 12.33Q75.46 12.88 75.37 13.36L75.37 13.36L75.37 13.36Q75.28 13.83 75.28 14.18L75.28 14.18L75.28 14.18Q75.28 14.57 75.36 14.83L75.36 14.83L75.36 14.83Q75.45 15.09 75.64 15.20L75.64 15.20L75.64 15.20Q75.47 15.32 75.21 15.39L75.21 15.39L75.21 15.39Q74.94 15.46 74.73 15.46L74.73 15.46L74.73 15.46Q73.98 15.46 73.98 14.42L73.98 14.42L73.98 14.42Q73.98 13.62 74.51 12.24L74.51 12.24L74.51 12.24Q74.23 12.88 73.86 13.45L73.86 13.45L73.86 13.45Q73.50 14.01 73.12 14.45L73.12 14.45L73.12 14.45Q72.74 14.88 72.36 15.15L72.36 15.15L72.36 15.15Q71.97 15.43 71.65 15.48L71.65 15.48L71.65 15.48Q71.13 15.46 70.81 14.99L70.81 14.99L70.81 14.99Q70.49 14.52 70.49 13.79L70.49 13.79L70.49 13.79Q70.49 13.01 70.83 12.14L70.83 12.14L70.83 12.14Q71.16 11.27 71.69 10.53L71.69 10.53L71.69 10.53Q72.21 9.79 72.83 9.29L72.83 9.29L72.83 9.29Q73.44 8.79 74.02 8.76L74.02 8.76L74.02 8.76Q74.16 8.81 74.33 8.93L74.33 8.93L74.33 8.93Q74.51 9.06 74.67 9.23L74.67 9.23L74.67 9.23Q74.83 9.39 74.94 9.57L74.94 9.57L74.94 9.57Q75.05 9.74 75.07 9.87L75.07 9.87L75.07 9.87Q74.51 9.95 73.91 10.42L73.91 10.42L73.91 10.42Q73.32 10.88 72.84 11.53L72.84 11.53L72.84 11.53Q72.35 12.18 72.04 12.92L72.04 12.92L72.04 12.92Q71.74 13.66 71.74 14.31L71.74 14.31L71.74 14.31Q71.74 14.57 71.93 14.64L71.93 14.64L71.93 14.64Q72.34 14.56 72.87 13.95L72.87 13.95L72.87 13.95Q73.40 13.34 74.16 12.07L74.16 12.07L74.16 12.07Q74.30 11.82 74.47 11.51L74.47 11.51L74.47 11.51Q74.65 11.20 74.83 10.86L74.83 10.86L74.83 10.86Q75.01 10.53 75.19 10.18L75.19 10.18L75.19 10.18Q75.36 9.84 75.52 9.52ZM83.93 14.90L83.93 14.90L83.93 14.90Q84 14.49 84.17 13.82L84.17 13.82L84.17 13.82Q84.35 13.16 84.59 12.41L84.59 12.41L84.59 12.41Q84.83 11.66 85.09 10.91L85.09 10.91L85.09 10.91Q85.36 10.15 85.61 9.55L85.61 9.55L85.61 9.55Q85.79 9.11 85.93 8.87L85.93 8.87L85.93 8.87Q86.07 8.62 86.24 8.46L86.24 8.46L86.24 8.46Q86.44 8.48 86.65 8.55L86.65 8.55L86.65 8.55Q86.86 8.62 87.05 8.72L87.05 8.72L87.05 8.72Q87.25 8.82 87.40 8.93L87.40 8.93L87.40 8.93Q87.56 9.03 87.64 9.13L87.64 9.13L87.64 9.13Q87.26 9.58 86.97 10.15L86.97 10.15L86.97 10.15Q86.69 10.72 86.39 11.62L86.39 11.62L86.39 11.62Q87.15 10.95 87.73 10.33L87.73 10.33L87.73 10.33Q88.31 9.72 88.82 8.96L88.82 8.96L88.82 8.96Q88.90 8.89 89.11 8.89L89.11 8.89L89.11 8.89Q89.31 8.89 89.49 8.95L89.49 8.95L89.49 8.95Q89.67 9.02 89.74 9.13L89.74 9.13L89.74 9.13Q89.49 9.80 89.49 10.46L89.49 10.46L89.49 10.46Q89.49 11.07 89.67 11.38L89.67 11.38L89.67 11.38Q89.66 11.47 89.48 11.70L89.48 11.70L89.48 11.70Q89.31 11.94 89.10 12.15L89.10 12.15L89.10 12.15Q88.72 11.96 88.42 11.61L88.42 11.61L88.42 11.61Q88.13 11.27 87.99 10.86L87.99 10.86L87.99 10.86Q87.33 11.33 86.87 11.77L86.87 11.77L86.87 11.77Q86.41 12.21 86.08 12.75L86.08 12.75L86.08 12.75Q85.75 13.29 85.52 13.99L85.52 13.99L85.52 13.99Q85.29 14.69 85.08 15.65L85.08 15.65L85.08 15.65Q84.95 15.64 84.78 15.56L84.78 15.56L84.78 15.56Q84.60 15.48 84.43 15.37L84.43 15.37L84.43 15.37Q84.25 15.26 84.11 15.13L84.11 15.13L84.11 15.13Q83.97 15.01 83.93 14.90ZM101.92 9.38L101.92 9.38L101.92 9.38Q101.86 10.25 101.61 10.87L101.61 10.87L101.61 10.87Q101.36 11.49 100.89 11.96L100.89 11.96L100.89 11.96Q100.42 12.43 99.75 12.81L99.75 12.81L99.75 12.81Q99.08 13.19 98.18 13.54L98.18 13.54L98.18 13.54Q98.18 13.62 98.17 13.71L98.17 13.71L98.17 13.71Q98.17 13.80 98.17 13.90L98.17 13.90L98.17 13.90Q98.17 14.08 98.20 14.28L98.20 14.28L98.20 14.28Q98.22 14.48 98.29 14.64L98.29 14.64L98.29 14.64Q98.36 14.81 98.49 14.92L98.49 14.92L98.49 14.92Q98.62 15.02 98.81 15.02L98.81 15.02L98.81 15.02Q99.19 15.02 99.55 14.85L99.55 14.85L99.55 14.85Q99.92 14.69 100.25 14.44L100.25 14.44L100.25 14.44Q100.58 14.20 100.86 13.91L100.86 13.91L100.86 13.91Q101.15 13.62 101.37 13.38L101.37 13.38L101.37 13.38Q101.51 13.51 101.61 13.62L101.61 13.62L101.61 13.62Q100.98 14.46 100.23 15.02L100.23 15.02L100.23 15.02Q99.48 15.57 98.81 15.72L98.81 15.72L98.81 15.72Q97.85 15.61 97.31 15.02L97.31 15.02L97.31 15.02Q96.77 14.42 96.77 13.58L96.77 13.58L96.77 13.58Q96.77 13.01 96.93 12.41L96.93 12.41L96.93 12.41Q97.09 11.82 97.38 11.26L97.38 11.26L97.38 11.26Q97.66 10.71 98.05 10.22L98.05 10.22L98.05 10.22Q98.43 9.73 98.88 9.37L98.88 9.37L98.88 9.37Q99.32 9.00 99.78 8.79L99.78 8.79L99.78 8.79Q100.25 8.58 100.72 8.58L100.72 8.58L100.72 8.58Q101.36 8.67 101.92 9.38ZM100.95 9.84L100.95 9.84L100.95 9.84Q100.58 9.90 100.17 10.15L100.17 10.15L100.17 10.15Q99.76 10.40 99.41 10.82L99.41 10.82L99.41 10.82Q99.05 11.24 98.76 11.80L98.76 11.80L98.76 11.80Q98.46 12.36 98.29 13.01L98.29 13.01L98.29 13.01Q99.41 12.45 100.16 11.63L100.16 11.63L100.16 11.63Q100.90 10.81 100.95 9.84ZM125.73 9.21L125.73 9.21L125.73 9.21Q126.20 9.21 126.45 9.46L126.45 9.46L126.45 9.46Q126.71 9.72 126.71 10.16L126.71 10.16L126.71 10.16Q126.71 10.28 126.69 10.39L126.69 10.39L126.69 10.39Q126.67 10.51 126.64 10.60L126.64 10.60L126.64 10.60Q126.46 10.57 126.24 10.55L126.24 10.55L126.24 10.55Q126.01 10.53 125.71 10.53L125.71 10.53L125.71 10.53Q125.10 10.53 124.49 10.63L124.49 10.63L124.49 10.63Q123.87 10.74 123.31 10.81L123.31 10.81L123.31 10.81Q122.99 11.55 122.72 12.24L122.72 12.24L122.72 12.24Q122.46 12.94 122.27 13.51L122.27 13.51L122.27 13.51Q122.08 14.08 121.97 14.50L121.97 14.50L121.97 14.50Q121.87 14.92 121.86 15.13L121.86 15.13L121.86 15.13Q122.99 14.90 124.14 14.73L124.14 14.73L124.14 14.73Q125.30 14.56 126.57 14.48L126.57 14.48L126.57 14.48Q126.73 14.71 126.83 14.99L126.83 14.99L126.83 14.99Q126.94 15.27 126.94 15.60L126.94 15.60L126.94 15.60Q126.94 15.68 126.94 15.78L126.94 15.78L126.94 15.78Q126.94 15.88 126.91 15.97L126.91 15.97L126.91 15.97Q126.52 15.96 126.08 15.95L126.08 15.95L126.08 15.95Q125.65 15.95 124.95 15.95L124.95 15.95L124.95 15.95Q124.49 15.95 124.08 15.97L124.08 15.97L124.08 15.97Q123.66 15.99 123.24 16.03L123.24 16.03L123.24 16.03Q122.82 16.07 122.35 16.14L122.35 16.14L122.35 16.14Q121.88 16.21 121.30 16.31L121.30 16.31L121.30 16.31Q120.65 16.06 120.05 15.08L120.05 15.08L120.05 15.08Q120.29 14.57 120.72 13.54L120.72 13.54L120.72 13.54Q121.14 12.52 121.80 10.79L121.80 10.79L121.80 10.79Q121.17 10.60 120.97 10.09L120.97 10.09L120.97 10.09Q121.04 10.02 121.38 9.92L121.38 9.92L121.38 9.92Q121.72 9.81 122.21 9.70L122.21 9.70L122.21 9.70Q122.42 9.16 122.56 8.75L122.56 8.75L122.56 8.75Q122.71 8.34 122.82 7.99L122.82 7.99L122.82 7.99Q122.93 7.63 123.02 7.29L123.02 7.29L123.02 7.29Q123.12 6.94 123.20 6.54L123.20 6.54L123.20 6.54Q122.71 6.51 122.43 6.27L122.43 6.27L122.43 6.27Q122.15 6.02 122.15 5.63L122.15 5.63L122.15 5.63Q122.15 5.52 122.19 5.36L122.19 5.36L122.19 5.36Q122.22 5.21 122.26 5.10L122.26 5.10L122.26 5.10Q122.54 5.14 122.80 5.15L122.80 5.15L122.80 5.15Q123.06 5.17 123.48 5.17L123.48 5.17L123.48 5.17Q124.36 5.17 125.13 5.12L125.13 5.12L125.13 5.12Q125.90 5.07 126.52 5.01L126.52 5.01L126.52 5.01Q127.15 4.96 127.60 4.91L127.60 4.91L127.60 4.91Q128.04 4.86 128.28 4.86L128.28 4.86L128.28 4.86Q128.60 4.86 128.86 5.19L128.86 5.19L128.86 5.19Q129.11 5.53 129.23 6.15L129.23 6.15L129.23 6.15Q128.80 6.10 128.53 6.09L128.53 6.09L128.53 6.09Q128.25 6.08 128.04 6.08L128.04 6.08L128.04 6.08Q127.27 6.08 126.64 6.15L126.64 6.15L126.64 6.15Q126 6.23 125.41 6.31L125.41 6.31L125.41 6.31Q125.33 6.44 125.22 6.64L125.22 6.64L125.22 6.64Q125.12 6.83 124.95 7.18L124.95 7.18L124.95 7.18Q124.78 7.53 124.54 8.06L124.54 8.06L124.54 8.06Q124.29 8.60 123.94 9.39L123.94 9.39L123.94 9.39Q124.47 9.31 124.94 9.26L124.94 9.26L124.94 9.26Q125.41 9.21 125.73 9.21ZM137.54 8.39L137.54 8.39L137.54 8.39Q137.90 8.50 138.22 8.88L138.22 8.88L138.22 8.88Q138.54 9.27 138.70 9.73L138.70 9.73L138.70 9.73Q138.54 10.11 138.22 10.64L138.22 10.64L138.22 10.64Q137.90 11.17 137.58 11.72L137.58 11.72L137.58 11.72Q137.26 12.28 137.00 12.78L137.00 12.78L137.00 12.78Q136.74 13.27 136.70 13.59L136.70 13.59L136.70 13.59Q136.92 13.36 137.19 13.04L137.19 13.04L137.19 13.04Q137.47 12.73 137.72 12.41L137.72 12.41L137.72 12.41Q137.98 12.10 138.21 11.84L138.21 11.84L138.21 11.84Q138.43 11.58 138.56 11.45L138.56 11.45L138.56 11.45Q138.82 11.17 139.19 10.80L139.19 10.80L139.19 10.80Q139.55 10.43 139.95 10.10L139.95 10.10L139.95 10.10Q140.35 9.77 140.76 9.54L140.76 9.54L140.76 9.54Q141.16 9.31 141.50 9.31L141.50 9.31L141.50 9.31Q141.86 9.31 142.11 9.55L142.11 9.55L142.11 9.55Q142.35 9.80 142.49 10.07L142.49 10.07L142.49 10.07Q142.49 10.09 142.39 10.14L142.39 10.14L142.39 10.14Q142.28 10.19 142.09 10.42L142.09 10.42L142.09 10.42Q141.89 10.67 141.65 11.11L141.65 11.11L141.65 11.11Q141.40 11.55 141.17 12.06L141.17 12.06L141.17 12.06Q140.94 12.57 140.78 13.10L140.78 13.10L140.78 13.10Q140.63 13.64 140.63 14.07L140.63 14.07L140.63 14.07Q140.63 14.42 140.72 14.52L140.72 14.52L140.72 14.52Q140.81 14.62 140.98 14.62L140.98 14.62L140.98 14.62Q141.13 14.62 141.30 14.55L141.30 14.55L141.30 14.55Q141.47 14.48 141.57 14.48L141.57 14.48L141.57 14.48Q141.62 14.50 141.66 14.60L141.66 14.60L141.66 14.60Q141.69 14.69 141.69 14.76L141.69 14.76L141.69 14.76Q141.58 14.85 141.43 14.95L141.43 14.95L141.43 14.95Q141.27 15.05 141.11 15.13L141.11 15.13L141.11 15.13Q140.94 15.22 140.78 15.27L140.78 15.27L140.78 15.27Q140.62 15.33 140.49 15.33L140.49 15.33L140.49 15.33Q140.08 15.33 139.82 15.21L139.82 15.21L139.82 15.21Q139.57 15.09 139.42 14.90L139.42 14.90L139.42 14.90Q139.27 14.70 139.22 14.43L139.22 14.43L139.22 14.43Q139.16 14.15 139.16 13.85L139.16 13.85L139.16 13.85Q139.16 13.68 139.19 13.47L139.19 13.47L139.19 13.47Q139.22 13.26 139.30 12.97L139.30 12.97L139.30 12.97Q139.38 12.68 139.54 12.29L139.54 12.29L139.54 12.29Q139.69 11.89 139.93 11.33L139.93 11.33L139.93 11.33Q139.90 11.33 139.55 11.52L139.55 11.52L139.55 11.52Q139.20 11.72 138.80 12.12L138.80 12.12L138.80 12.12Q138.14 12.75 137.61 13.37L137.61 13.37L137.61 13.37Q137.09 13.99 136.54 14.74L136.54 14.74L136.54 14.74Q136.23 15.18 136.00 15.48L136.00 15.48L136.00 15.48Q135.77 15.78 135.60 15.88L135.60 15.88L135.60 15.88Q135.31 15.71 135.17 15.41L135.17 15.41L135.17 15.41Q135.03 15.11 134.96 14.78L134.96 14.78L134.96 14.78Q134.96 14.52 135.04 14.11L135.04 14.11L135.04 14.11Q135.11 13.71 135.25 13.21L135.25 13.21L135.25 13.21Q135.38 12.71 135.58 12.17L135.58 12.17L135.58 12.17Q135.77 11.62 136.01 11.07L136.01 11.07L136.01 11.07Q136.54 9.84 136.98 9.14L136.98 9.14L136.98 9.14Q137.42 8.44 137.54 8.39ZM147 19.35L147 19.35L147 19.35Q147 19.26 147.06 19.19L147.06 19.19L147.06 19.19Q147.11 19.12 147.18 19.05L147.18 19.05L147.18 19.05Q147.35 19.21 147.47 19.29L147.47 19.29L147.47 19.29Q147.59 19.38 147.69 19.43L147.69 19.43L147.69 19.43Q147.80 19.49 147.91 19.50L147.91 19.50L147.91 19.50Q148.02 19.52 148.18 19.52L148.18 19.52L148.18 19.52Q148.90 19.52 149.56 19.13L149.56 19.13L149.56 19.13Q150.22 18.75 150.80 18.02L150.80 18.02L150.80 18.02Q151.38 17.29 151.86 16.24L151.86 16.24L151.86 16.24Q152.33 15.19 152.70 13.86L152.70 13.86L152.70 13.86Q152.53 14.03 152.28 14.23L152.28 14.23L152.28 14.23Q152.04 14.43 151.77 14.62L151.77 14.62L151.77 14.62Q151.51 14.80 151.25 14.95L151.25 14.95L151.25 14.95Q150.99 15.11 150.81 15.18L150.81 15.18L150.81 15.18Q150.57 15.13 150.37 14.97L150.37 14.97L150.37 14.97Q150.16 14.81 150.01 14.57L150.01 14.57L150.01 14.57Q149.86 14.34 149.77 14.04L149.77 14.04L149.77 14.04Q149.69 13.73 149.69 13.40L149.69 13.40L149.69 13.40Q149.69 12.85 149.89 12.28L149.89 12.28L149.89 12.28Q150.09 11.70 150.43 11.15L150.43 11.15L150.43 11.15Q150.77 10.60 151.22 10.11L151.22 10.11L151.22 10.11Q151.68 9.62 152.19 9.25L152.19 9.25L152.19 9.25Q152.70 8.89 153.22 8.67L153.22 8.67L153.22 8.67Q153.75 8.46 154.25 8.46L154.25 8.46L154.25 8.46Q154.74 8.46 154.99 8.66L154.99 8.66L154.99 8.66Q155.23 8.86 155.34 9.35L155.34 9.35L155.34 9.35Q155.19 9.27 154.95 9.27L154.95 9.27L154.95 9.27Q154.62 9.27 154.18 9.53L154.18 9.53L154.18 9.53Q153.73 9.80 153.28 10.23L153.28 10.23L153.28 10.23Q152.82 10.65 152.38 11.21L152.38 11.21L152.38 11.21Q151.93 11.76 151.59 12.33L151.59 12.33L151.59 12.33Q151.24 12.91 151.03 13.45L151.03 13.45L151.03 13.45Q150.81 14 150.81 14.43L150.81 14.43L150.81 14.43Q150.81 14.53 150.82 14.55L150.82 14.55L150.82 14.55Q150.84 14.57 150.86 14.57L150.86 14.57L150.86 14.57Q150.99 14.57 151.21 14.43L151.21 14.43L151.21 14.43Q151.42 14.29 151.70 14.08L151.70 14.08L151.70 14.08Q151.97 13.86 152.26 13.57L152.26 13.57L152.26 13.57Q152.56 13.29 152.82 12.99L152.82 12.99L152.82 12.99Q153.43 12.32 153.92 11.49L153.92 11.49L153.92 11.49Q154.42 10.65 154.71 9.87L154.71 9.87L154.71 9.87Q155.09 9.90 155.39 10.00L155.39 10.00L155.39 10.00Q155.68 10.09 155.79 10.21L155.79 10.21L155.79 10.21Q155.32 11.30 155.03 12.04L155.03 12.04L155.03 12.04Q154.74 12.78 154.53 13.36L154.53 13.36L154.53 13.36Q154.15 14.36 153.82 15.20L153.82 15.20L153.82 15.20Q153.50 16.03 153.15 16.74L153.15 16.74L153.15 16.74Q152.81 17.44 152.41 18.05L152.41 18.05L152.41 18.05Q152.01 18.66 151.51 19.22L151.51 19.22L151.51 19.22Q151.27 19.49 150.97 19.69L150.97 19.69L150.97 19.69Q150.67 19.89 150.35 20.03L150.35 20.03L150.35 20.03Q150.04 20.17 149.74 20.24L149.74 20.24L149.74 20.24Q149.44 20.31 149.18 20.31L149.18 20.31L149.18 20.31Q148.85 20.31 148.50 20.24L148.50 20.24L148.50 20.24Q148.15 20.16 147.85 20.03L147.85 20.03L147.85 20.03Q147.55 19.89 147.32 19.72L147.32 19.72L147.32 19.72Q147.10 19.54 147 19.35ZM163.14 14.24L163.14 14.24L163.14 14.24Q163.14 14.11 163.16 13.92L163.16 13.92L163.16 13.92Q163.18 13.73 163.24 13.42L163.24 13.42L163.24 13.42Q163.30 13.10 163.39 12.66L163.39 12.66L163.39 12.66Q163.48 12.21 163.62 11.58L163.62 11.58L163.62 11.58Q163.65 11.44 163.74 11.13L163.74 11.13L163.74 11.13Q163.84 10.82 164.00 10.48L164.00 10.48L164.00 10.48Q164.16 10.14 164.40 9.81L164.40 9.81L164.40 9.81Q164.63 9.49 164.95 9.34L164.95 9.34L164.95 9.34Q165.19 9.39 165.58 9.63L165.58 9.63L165.58 9.63Q165.97 9.86 166.25 10.26L166.25 10.26L166.25 10.26Q165.93 10.63 165.71 10.99L165.71 10.99L165.71 10.99Q165.49 11.35 165.32 11.75L165.32 11.75L165.32 11.75Q165.14 12.14 165.00 12.56L165.00 12.56L165.00 12.56Q164.85 12.98 164.67 13.44L164.67 13.44L164.67 13.44Q164.51 13.83 164.39 14.25L164.39 14.25L164.39 14.25Q164.26 14.66 164.25 14.97L164.25 14.97L164.25 14.97Q164.25 15.22 164.24 15.32L164.24 15.32L164.24 15.32Q164.23 15.43 164.16 15.43L164.16 15.43L164.16 15.43Q164.11 15.43 163.94 15.36L163.94 15.36L163.94 15.36Q163.77 15.29 163.60 15.14L163.60 15.14L163.60 15.14Q163.42 14.99 163.28 14.77L163.28 14.77L163.28 14.77Q163.14 14.55 163.14 14.24ZM165.82 8.16L165.82 8.16L165.82 8.16Q165.82 8.08 165.86 7.91L165.86 7.91L165.86 7.91Q165.79 7.84 165.74 7.70L165.74 7.70L165.74 7.70Q165.69 7.56 165.69 7.45L165.69 7.45L165.69 7.45Q165.69 7.32 165.73 7.11L165.73 7.11L165.73 7.11Q165.76 6.89 165.82 6.64L165.82 6.64L165.82 6.64Q165.87 6.38 165.96 6.11L165.96 6.11L165.96 6.11Q166.04 5.84 166.12 5.61L166.12 5.61L166.12 5.61Q166.29 5.61 166.54 5.71L166.54 5.71L166.54 5.71Q166.78 5.80 167.03 5.94L167.03 5.94L167.03 5.94Q167.29 6.09 167.50 6.27L167.50 6.27L167.50 6.27Q167.71 6.44 167.82 6.59L167.82 6.59L167.82 6.59Q167.66 6.75 167.41 7.02L167.41 7.02L167.41 7.02Q167.16 7.29 166.92 7.59L166.92 7.59L166.92 7.59Q166.68 7.90 166.49 8.16L166.49 8.16L166.49 8.16Q166.29 8.43 166.24 8.54L166.24 8.54L166.24 8.54Q166.07 8.51 165.94 8.39L165.94 8.39L165.94 8.39Q165.82 8.27 165.82 8.16ZM175.70 8.39L175.70 8.39L175.70 8.39Q176.06 8.50 176.39 8.88L176.39 8.88L176.39 8.88Q176.71 9.27 176.86 9.73L176.86 9.73L176.86 9.73Q176.71 10.11 176.39 10.64L176.39 10.64L176.39 10.64Q176.06 11.17 175.74 11.72L175.74 11.72L175.74 11.72Q175.42 12.28 175.16 12.78L175.16 12.78L175.16 12.78Q174.90 13.27 174.86 13.59L174.86 13.59L174.86 13.59Q175.08 13.36 175.36 13.04L175.36 13.04L175.36 13.04Q175.63 12.73 175.89 12.41L175.89 12.41L175.89 12.41Q176.15 12.10 176.37 11.84L176.37 11.84L176.37 11.84Q176.60 11.58 176.72 11.45L176.72 11.45L176.72 11.45Q176.99 11.17 177.35 10.80L177.35 10.80L177.35 10.80Q177.72 10.43 178.12 10.10L178.12 10.10L178.12 10.10Q178.51 9.77 178.92 9.54L178.92 9.54L178.92 9.54Q179.33 9.31 179.66 9.31L179.66 9.31L179.66 9.31Q180.03 9.31 180.27 9.55L180.27 9.55L180.27 9.55Q180.52 9.80 180.66 10.07L180.66 10.07L180.66 10.07Q180.66 10.09 180.55 10.14L180.55 10.14L180.55 10.14Q180.45 10.19 180.25 10.42L180.25 10.42L180.25 10.42Q180.05 10.67 179.81 11.11L179.81 11.11L179.81 11.11Q179.56 11.55 179.33 12.06L179.33 12.06L179.33 12.06Q179.10 12.57 178.95 13.10L178.95 13.10L178.95 13.10Q178.79 13.64 178.79 14.07L178.79 14.07L178.79 14.07Q178.79 14.42 178.89 14.52L178.89 14.52L178.89 14.52Q178.98 14.62 179.14 14.62L179.14 14.62L179.14 14.62Q179.30 14.62 179.47 14.55L179.47 14.55L179.47 14.55Q179.63 14.48 179.73 14.48L179.73 14.48L179.73 14.48Q179.79 14.50 179.82 14.60L179.82 14.60L179.82 14.60Q179.86 14.69 179.86 14.76L179.86 14.76L179.86 14.76Q179.75 14.85 179.59 14.95L179.59 14.95L179.59 14.95Q179.44 15.05 179.27 15.13L179.27 15.13L179.27 15.13Q179.10 15.22 178.94 15.27L178.94 15.27L178.94 15.27Q178.78 15.33 178.65 15.33L178.65 15.33L178.65 15.33Q178.25 15.33 177.99 15.21L177.99 15.21L177.99 15.21Q177.73 15.09 177.58 14.90L177.58 14.90L177.58 14.90Q177.44 14.70 177.38 14.43L177.38 14.43L177.38 14.43Q177.32 14.15 177.32 13.85L177.32 13.85L177.32 13.85Q177.32 13.68 177.35 13.47L177.35 13.47L177.35 13.47Q177.38 13.26 177.46 12.97L177.46 12.97L177.46 12.97Q177.55 12.68 177.70 12.29L177.70 12.29L177.70 12.29Q177.86 11.89 178.09 11.33L178.09 11.33L178.09 11.33Q178.07 11.33 177.72 11.52L177.72 11.52L177.72 11.52Q177.37 11.72 176.96 12.12L176.96 12.12L176.96 12.12Q176.30 12.75 175.78 13.37L175.78 13.37L175.78 13.37Q175.25 13.99 174.71 14.74L174.71 14.74L174.71 14.74Q174.40 15.18 174.17 15.48L174.17 15.48L174.17 15.48Q173.94 15.78 173.77 15.88L173.77 15.88L173.77 15.88Q173.47 15.71 173.33 15.41L173.33 15.41L173.33 15.41Q173.19 15.11 173.12 14.78L173.12 14.78L173.12 14.78Q173.12 14.52 173.20 14.11L173.20 14.11L173.20 14.11Q173.28 13.71 173.41 13.21L173.41 13.21L173.41 13.21Q173.54 12.71 173.74 12.17L173.74 12.17L173.74 12.17Q173.94 11.62 174.17 11.07L174.17 11.07L174.17 11.07Q174.71 9.84 175.15 9.14L175.15 9.14L175.15 9.14Q175.59 8.44 175.70 8.39ZM193.00 9.38L193.00 9.38L193.00 9.38Q192.95 10.25 192.70 10.87L192.70 10.87L192.70 10.87Q192.44 11.49 191.98 11.96L191.98 11.96L191.98 11.96Q191.51 12.43 190.83 12.81L190.83 12.81L190.83 12.81Q190.16 13.19 189.27 13.54L189.27 13.54L189.27 13.54Q189.27 13.62 189.26 13.71L189.26 13.71L189.26 13.71Q189.25 13.80 189.25 13.90L189.25 13.90L189.25 13.90Q189.25 14.08 189.28 14.28L189.28 14.28L189.28 14.28Q189.31 14.48 189.38 14.64L189.38 14.64L189.38 14.64Q189.45 14.81 189.57 14.92L189.57 14.92L189.57 14.92Q189.70 15.02 189.90 15.02L189.90 15.02L189.90 15.02Q190.27 15.02 190.64 14.85L190.64 14.85L190.64 14.85Q191.00 14.69 191.33 14.44L191.33 14.44L191.33 14.44Q191.66 14.20 191.95 13.91L191.95 13.91L191.95 13.91Q192.23 13.62 192.46 13.38L192.46 13.38L192.46 13.38Q192.60 13.51 192.70 13.62L192.70 13.62L192.70 13.62Q192.07 14.46 191.32 15.02L191.32 15.02L191.32 15.02Q190.57 15.57 189.90 15.72L189.90 15.72L189.90 15.72Q188.93 15.61 188.39 15.02L188.39 15.02L188.39 15.02Q187.85 14.42 187.85 13.58L187.85 13.58L187.85 13.58Q187.85 13.01 188.01 12.41L188.01 12.41L188.01 12.41Q188.17 11.82 188.46 11.26L188.46 11.26L188.46 11.26Q188.75 10.71 189.13 10.22L189.13 10.22L189.13 10.22Q189.52 9.73 189.96 9.37L189.96 9.37L189.96 9.37Q190.40 9.00 190.87 8.79L190.87 8.79L190.87 8.79Q191.34 8.58 191.80 8.58L191.80 8.58L191.80 8.58Q192.44 8.67 193.00 9.38ZM192.04 9.84L192.04 9.84L192.04 9.84Q191.66 9.90 191.25 10.15L191.25 10.15L191.25 10.15Q190.85 10.40 190.49 10.82L190.49 10.82L190.49 10.82Q190.13 11.24 189.84 11.80L189.84 11.80L189.84 11.80Q189.55 12.36 189.38 13.01L189.38 13.01L189.38 13.01Q190.50 12.45 191.24 11.63L191.24 11.63L191.24 11.63Q191.98 10.81 192.04 9.84ZM205.66 9.38L205.66 9.38L205.66 9.38Q205.60 10.25 205.35 10.87L205.35 10.87L205.35 10.87Q205.10 11.49 204.63 11.96L204.63 11.96L204.63 11.96Q204.16 12.43 203.49 12.81L203.49 12.81L203.49 12.81Q202.82 13.19 201.92 13.54L201.92 13.54L201.92 13.54Q201.92 13.62 201.92 13.71L201.92 13.71L201.92 13.71Q201.91 13.80 201.91 13.90L201.91 13.90L201.91 13.90Q201.91 14.08 201.94 14.28L201.94 14.28L201.94 14.28Q201.96 14.48 202.03 14.64L202.03 14.64L202.03 14.64Q202.10 14.81 202.23 14.92L202.23 14.92L202.23 14.92Q202.36 15.02 202.55 15.02L202.55 15.02L202.55 15.02Q202.93 15.02 203.29 14.85L203.29 14.85L203.29 14.85Q203.66 14.69 203.99 14.44L203.99 14.44L203.99 14.44Q204.32 14.20 204.60 13.91L204.60 13.91L204.60 13.91Q204.89 13.62 205.11 13.38L205.11 13.38L205.11 13.38Q205.25 13.51 205.35 13.62L205.35 13.62L205.35 13.62Q204.72 14.46 203.97 15.02L203.97 15.02L203.97 15.02Q203.22 15.57 202.55 15.72L202.55 15.72L202.55 15.72Q201.59 15.61 201.05 15.02L201.05 15.02L201.05 15.02Q200.51 14.42 200.51 13.58L200.51 13.58L200.51 13.58Q200.51 13.01 200.67 12.41L200.67 12.41L200.67 12.41Q200.83 11.82 201.12 11.26L201.12 11.26L201.12 11.26Q201.40 10.71 201.79 10.22L201.79 10.22L201.79 10.22Q202.17 9.73 202.62 9.37L202.62 9.37L202.62 9.37Q203.06 9.00 203.53 8.79L203.53 8.79L203.53 8.79Q203.99 8.58 204.46 8.58L204.46 8.58L204.46 8.58Q205.10 8.67 205.66 9.38ZM204.69 9.84L204.69 9.84L204.69 9.84Q204.32 9.90 203.91 10.15L203.91 10.15L203.91 10.15Q203.50 10.40 203.15 10.82L203.15 10.82L203.15 10.82Q202.79 11.24 202.50 11.80L202.50 11.80L202.50 11.80Q202.20 12.36 202.03 13.01L202.03 13.01L202.03 13.01Q203.15 12.45 203.90 11.63L203.90 11.63L203.90 11.63Q204.64 10.81 204.69 9.84ZM212.97 14.90L212.97 14.90L212.97 14.90Q213.04 14.49 213.21 13.82L213.21 13.82L213.21 13.82Q213.39 13.16 213.63 12.41L213.63 12.41L213.63 12.41Q213.86 11.66 214.13 10.91L214.13 10.91L214.13 10.91Q214.40 10.15 214.65 9.55L214.65 9.55L214.65 9.55Q214.83 9.11 214.97 8.87L214.97 8.87L214.97 8.87Q215.11 8.62 215.28 8.46L215.28 8.46L215.28 8.46Q215.47 8.48 215.68 8.55L215.68 8.55L215.68 8.55Q215.89 8.62 216.09 8.72L216.09 8.72L216.09 8.72Q216.29 8.82 216.44 8.93L216.44 8.93L216.44 8.93Q216.59 9.03 216.68 9.13L216.68 9.13L216.68 9.13Q216.30 9.58 216.01 10.15L216.01 10.15L216.01 10.15Q215.73 10.72 215.43 11.62L215.43 11.62L215.43 11.62Q216.19 10.95 216.77 10.33L216.77 10.33L216.77 10.33Q217.35 9.72 217.85 8.96L217.85 8.96L217.85 8.96Q217.94 8.89 218.15 8.89L218.15 8.89L218.15 8.89Q218.34 8.89 218.53 8.95L218.53 8.95L218.53 8.95Q218.71 9.02 218.78 9.13L218.78 9.13L218.78 9.13Q218.53 9.80 218.53 10.46L218.53 10.46L218.53 10.46Q218.53 11.07 218.71 11.38L218.71 11.38L218.71 11.38Q218.69 11.47 218.52 11.70L218.52 11.70L218.52 11.70Q218.34 11.94 218.13 12.15L218.13 12.15L218.13 12.15Q217.76 11.96 217.46 11.61L217.46 11.61L217.46 11.61Q217.17 11.27 217.03 10.86L217.03 10.86L217.03 10.86Q216.37 11.33 215.91 11.77L215.91 11.77L215.91 11.77Q215.45 12.21 215.12 12.75L215.12 12.75L215.12 12.75Q214.79 13.29 214.56 13.99L214.56 13.99L214.56 13.99Q214.33 14.69 214.12 15.65L214.12 15.65L214.12 15.65Q213.99 15.64 213.82 15.56L213.82 15.56L213.82 15.56Q213.64 15.48 213.47 15.37L213.47 15.37L213.47 15.37Q213.29 15.26 213.15 15.13L213.15 15.13L213.15 15.13Q213.01 15.01 212.97 14.90Z"></path></g></svg>