<svg data-v-fde0c5aa="" xmlns="http://www.w3.org/2000/svg" viewBox="0 0 300 300" class="icon"><!----><defs data-v-fde0c5aa=""><!----></defs><rect data-v-fde0c5aa="" fill="#443431" x="0" y="0" width="300px" height="300px" class="logo-background-square"></rect><!----><defs data-v-fde0c5aa=""><!----></defs><g data-v-fde0c5aa="" id="a37a50e3-d14c-4ef7-baff-03bfdc16f095" fill="#648170" stroke="none" transform="matrix(2.5,0,0,2.5,25,25)"><path d="M94 59.75v-46c0-2.206-1.794-4-4-4H10c-2.206 0-4 1.794-4 4v46h88zM78.939 17.689a1.5 1.5 0 0 1 2.121 0l5 5a1.5 1.5 0 1 1-2.121 2.122l-5-5a1.502 1.502 0 0 1 0-2.122zm-10 0a1.5 1.5 0 0 1 2.121 0l15 15a1.5 1.5 0 1 1-2.121 2.122l-15-15a1.502 1.502 0 0 1 0-2.122zM6 62.75v6c0 2.206 1.794 4 4 4h28.5v6c0 1.071-.541 2.857-1.135 3.748l-2.227 3.34c-.68 1.02-.797 2.116-.319 3.009.477.892 1.454 1.403 2.681 1.403h25c1.227 0 2.203-.512 2.681-1.403.478-.893.361-1.989-.319-3.009l-2.227-3.34c-.594-.891-1.135-2.677-1.135-3.748v-6H90c2.206 0 4-1.794 4-4v-6H6zm44 6a2.5 2.5 0 1 1 0-5 2.5 2.5 0 0 1 0 5z"></path></g><!----></svg>